<mxfile host="app.diagrams.net" modified="2024-01-13T15:30:57.979Z" agent="Mozilla/5.0 (Macintosh; Intel Mac OS X 10_15_7) AppleWebKit/605.1.15 (KHTML, like Gecko) Version/16.6 Safari/605.1.15" etag="sWndvvCK9-2jmM2LdTlm" version="22.1.18" type="github">
  <diagram name="PÃ¡gina-1" id="hqyLHkv1WEBpWjszVn6m">
    <mxGraphModel dx="793" dy="468" grid="1" gridSize="10" guides="1" tooltips="1" connect="1" arrows="1" fold="1" page="1" pageScale="1" pageWidth="827" pageHeight="1169" math="0" shadow="0">
      <root>
        <mxCell id="0" />
        <mxCell id="1" parent="0" />
        <mxCell id="m5LCZ1wY7odLUyhHi6F_-1" value="" style="shape=umlActor;verticalLabelPosition=bottom;verticalAlign=top;html=1;outlineConnect=0;" vertex="1" parent="1">
          <mxGeometry x="15" y="330" width="70" height="110" as="geometry" />
        </mxCell>
        <mxCell id="m5LCZ1wY7odLUyhHi6F_-2" value="Browser" style="text;strokeColor=none;align=center;fillColor=none;html=1;verticalAlign=middle;whiteSpace=wrap;rounded=0;" vertex="1" parent="1">
          <mxGeometry x="260" y="240" width="60" height="30" as="geometry" />
        </mxCell>
        <mxCell id="m5LCZ1wY7odLUyhHi6F_-5" value="" style="rounded=0;whiteSpace=wrap;html=1;rotation=-90;" vertex="1" parent="1">
          <mxGeometry x="535" y="350" width="90" height="90" as="geometry" />
        </mxCell>
        <mxCell id="m5LCZ1wY7odLUyhHi6F_-6" value="" style="ellipse;whiteSpace=wrap;html=1;aspect=fixed;" vertex="1" parent="1">
          <mxGeometry x="245" y="350" width="90" height="90" as="geometry" />
        </mxCell>
        <mxCell id="m5LCZ1wY7odLUyhHi6F_-7" value="User" style="text;strokeColor=none;align=center;fillColor=none;html=1;verticalAlign=middle;whiteSpace=wrap;rounded=0;" vertex="1" parent="1">
          <mxGeometry x="20" y="240" width="60" height="30" as="geometry" />
        </mxCell>
        <mxCell id="m5LCZ1wY7odLUyhHi6F_-8" value="Web Server" style="text;strokeColor=none;align=center;fillColor=none;html=1;verticalAlign=middle;whiteSpace=wrap;rounded=0;" vertex="1" parent="1">
          <mxGeometry x="530" y="240" width="90" height="30" as="geometry" />
        </mxCell>
        <mxCell id="m5LCZ1wY7odLUyhHi6F_-19" value="1. URL" style="text;strokeColor=none;align=center;fillColor=none;html=1;verticalAlign=middle;whiteSpace=wrap;rounded=0;" vertex="1" parent="1">
          <mxGeometry x="103" y="330" width="60" height="30" as="geometry" />
        </mxCell>
        <mxCell id="m5LCZ1wY7odLUyhHi6F_-20" value="" style="endArrow=classic;html=1;rounded=0;" edge="1" parent="1">
          <mxGeometry width="50" height="50" relative="1" as="geometry">
            <mxPoint x="100" y="359.58" as="sourcePoint" />
            <mxPoint x="230" y="360" as="targetPoint" />
          </mxGeometry>
        </mxCell>
        <mxCell id="m5LCZ1wY7odLUyhHi6F_-23" value="http://www.exemple.com/index.html" style="text;strokeColor=none;align=center;fillColor=none;html=1;verticalAlign=middle;whiteSpace=wrap;rounded=0;fontSize=8;labelBackgroundColor=default;" vertex="1" parent="1">
          <mxGeometry x="85" y="360" width="150" height="30" as="geometry" />
        </mxCell>
        <mxCell id="m5LCZ1wY7odLUyhHi6F_-26" value="Translate URL into HTTP Request" style="text;strokeColor=none;align=center;fillColor=none;html=1;verticalAlign=middle;whiteSpace=wrap;rounded=0;labelBackgroundColor=#f1ffec;labelBorderColor=none;" vertex="1" parent="1">
          <mxGeometry x="230" y="290" width="120" height="30" as="geometry" />
        </mxCell>
        <mxCell id="m5LCZ1wY7odLUyhHi6F_-27" value="" style="endArrow=classic;html=1;rounded=0;" edge="1" parent="1">
          <mxGeometry width="50" height="50" relative="1" as="geometry">
            <mxPoint x="359" y="360" as="sourcePoint" />
            <mxPoint x="499" y="360" as="targetPoint" />
          </mxGeometry>
        </mxCell>
        <mxCell id="m5LCZ1wY7odLUyhHi6F_-28" value="2. HTTP request" style="text;strokeColor=none;align=center;fillColor=none;html=1;verticalAlign=middle;whiteSpace=wrap;rounded=0;" vertex="1" parent="1">
          <mxGeometry x="367" y="330" width="110" height="30" as="geometry" />
        </mxCell>
        <mxCell id="m5LCZ1wY7odLUyhHi6F_-29" value="Rendering data to final webpage" style="text;strokeColor=none;align=center;fillColor=none;html=1;verticalAlign=middle;whiteSpace=wrap;rounded=0;labelBackgroundColor=#f9d3e0;labelBorderColor=none;" vertex="1" parent="1">
          <mxGeometry x="235" y="470" width="110" height="30" as="geometry" />
        </mxCell>
        <mxCell id="m5LCZ1wY7odLUyhHi6F_-30" value="GET /index.html" style="text;strokeColor=none;align=center;fillColor=none;html=1;verticalAlign=middle;whiteSpace=wrap;rounded=0;fontSize=8;labelBackgroundColor=default;" vertex="1" parent="1">
          <mxGeometry x="345" y="360" width="90" height="30" as="geometry" />
        </mxCell>
        <mxCell id="m5LCZ1wY7odLUyhHi6F_-33" value="" style="endArrow=classic;html=1;rounded=0;" edge="1" parent="1">
          <mxGeometry width="50" height="50" relative="1" as="geometry">
            <mxPoint x="499" y="430" as="sourcePoint" />
            <mxPoint x="359" y="430" as="targetPoint" />
          </mxGeometry>
        </mxCell>
        <mxCell id="m5LCZ1wY7odLUyhHi6F_-34" value="status code + webpage data" style="text;strokeColor=none;align=center;fillColor=none;html=1;verticalAlign=middle;whiteSpace=wrap;rounded=0;fontSize=8;labelBackgroundColor=default;" vertex="1" parent="1">
          <mxGeometry x="370" y="430" width="110" height="30" as="geometry" />
        </mxCell>
        <mxCell id="m5LCZ1wY7odLUyhHi6F_-36" value="" style="endArrow=classic;html=1;rounded=0;" edge="1" parent="1">
          <mxGeometry width="50" height="50" relative="1" as="geometry">
            <mxPoint x="230" y="429.59" as="sourcePoint" />
            <mxPoint x="100" y="429.17" as="targetPoint" />
          </mxGeometry>
        </mxCell>
        <mxCell id="m5LCZ1wY7odLUyhHi6F_-37" value="display webpage index.html" style="text;strokeColor=none;align=center;fillColor=none;html=1;verticalAlign=middle;whiteSpace=wrap;rounded=0;fontSize=8;labelBackgroundColor=default;" vertex="1" parent="1">
          <mxGeometry x="110" y="430" width="110" height="30" as="geometry" />
        </mxCell>
        <mxCell id="m5LCZ1wY7odLUyhHi6F_-41" value="Interpreting the request retrieving required data files" style="text;strokeColor=none;align=center;fillColor=none;html=1;verticalAlign=middle;whiteSpace=wrap;rounded=0;labelBackgroundColor=#9AC7BF;labelBorderColor=none;" vertex="1" parent="1">
          <mxGeometry x="500" y="290" width="160" height="30" as="geometry" />
        </mxCell>
        <mxCell id="m5LCZ1wY7odLUyhHi6F_-42" value="Sending status of search and data of the webpage" style="text;strokeColor=none;align=center;fillColor=none;html=1;verticalAlign=middle;whiteSpace=wrap;rounded=0;labelBackgroundColor=#F8CECC;labelBorderColor=none;" vertex="1" parent="1">
          <mxGeometry x="510" y="470" width="140" height="30" as="geometry" />
        </mxCell>
        <mxCell id="m5LCZ1wY7odLUyhHi6F_-43" value="Entry" style="text;strokeColor=none;align=center;fillColor=none;html=1;verticalAlign=middle;whiteSpace=wrap;rounded=0;labelBackgroundColor=#FFE599;labelBorderColor=none;" vertex="1" parent="1">
          <mxGeometry x="10" y="290" width="80" height="30" as="geometry" />
        </mxCell>
        <mxCell id="m5LCZ1wY7odLUyhHi6F_-44" value="Screen" style="text;strokeColor=none;align=center;fillColor=none;html=1;verticalAlign=middle;whiteSpace=wrap;rounded=0;labelBackgroundColor=#FF99FF;labelBorderColor=none;" vertex="1" parent="1">
          <mxGeometry x="15" y="470" width="80" height="30" as="geometry" />
        </mxCell>
        <mxCell id="m5LCZ1wY7odLUyhHi6F_-45" value="4. Webpage" style="text;strokeColor=none;align=center;fillColor=none;html=1;verticalAlign=middle;whiteSpace=wrap;rounded=0;" vertex="1" parent="1">
          <mxGeometry x="110" y="400" width="70" height="30" as="geometry" />
        </mxCell>
        <mxCell id="m5LCZ1wY7odLUyhHi6F_-48" value="3. HTTP response" style="text;strokeColor=none;align=center;fillColor=none;html=1;verticalAlign=middle;whiteSpace=wrap;rounded=0;" vertex="1" parent="1">
          <mxGeometry x="370" y="400" width="110" height="30" as="geometry" />
        </mxCell>
      </root>
    </mxGraphModel>
  </diagram>
</mxfile>
